<svg width="145" height="113" viewBox="0 0 145 113" fill="none" xmlns="http://www.w3.org/2000/svg">
<g opacity="0.75">
<path opacity="0.95" d="M145 0H0V113H145V0Z" fill="#017A93"/>
<path opacity="0.75" d="M41.9733 29.008V46H36.6453V29.008H41.9733ZM54.7717 37.264L61.0597 46H54.6517L49.7077 38.632V46H44.3797V29.008H49.7077V36.184L54.6997 29.008H61.0597L54.7717 37.264ZM70.7769 28.72C72.3769 28.72 73.8409 29.096 75.1689 29.848C76.4969 30.584 77.5449 31.616 78.3129 32.944C79.0969 34.272 79.4889 35.768 79.4889 37.432C79.4889 39.096 79.0969 40.592 78.3129 41.92C77.5449 43.248 76.4889 44.288 75.1449 45.04C73.8169 45.792 72.3609 46.168 70.7769 46.168C69.1769 46.168 67.7049 45.792 66.3609 45.04C65.0329 44.288 63.9769 43.248 63.1929 41.92C62.4089 40.592 62.0169 39.096 62.0169 37.432C62.0169 35.768 62.4089 34.272 63.1929 32.944C63.9769 31.616 65.0329 30.584 66.3609 29.848C67.7049 29.096 69.1769 28.72 70.7769 28.72ZM70.7769 33.64C69.7049 33.64 68.8809 33.984 68.3049 34.672C67.7289 35.344 67.4409 36.264 67.4409 37.432C67.4409 38.584 67.7289 39.504 68.3049 40.192C68.8809 40.864 69.7049 41.2 70.7769 41.2C71.8329 41.2 72.6489 40.864 73.2249 40.192C73.8009 39.504 74.0889 38.584 74.0889 37.432C74.0889 36.264 73.8009 35.344 73.2249 34.672C72.6489 33.984 71.8329 33.64 70.7769 33.64ZM97.7309 29.008L91.6349 40.84V46H86.3069V40.84L80.2109 29.008H86.3069L89.0189 35.032L91.7309 29.008H97.7309ZM104.27 29.008V46H98.9422V29.008H104.27ZM43.2716 65.008V82H37.9436V75.376H32.8796V82H27.5516V65.008H32.8796V71.128H37.9436V65.008H43.2716ZM53.9488 64.72C55.5488 64.72 57.0128 65.096 58.3408 65.848C59.6688 66.584 60.7168 67.616 61.4848 68.944C62.2688 70.272 62.6608 71.768 62.6608 73.432C62.6608 75.096 62.2688 76.592 61.4848 77.92C60.7168 79.248 59.6608 80.288 58.3168 81.04C56.9888 81.792 55.5328 82.168 53.9488 82.168C52.3488 82.168 50.8768 81.792 49.5328 81.04C48.2048 80.288 47.1488 79.248 46.3648 77.92C45.5808 76.592 45.1888 75.096 45.1888 73.432C45.1888 71.768 45.5808 70.272 46.3648 68.944C47.1488 67.616 48.2048 66.584 49.5328 65.848C50.8768 65.096 52.3488 64.72 53.9488 64.72ZM53.9488 69.64C52.8768 69.64 52.0528 69.984 51.4768 70.672C50.9008 71.344 50.6128 72.264 50.6128 73.432C50.6128 74.584 50.9008 75.504 51.4768 76.192C52.0528 76.864 52.8768 77.2 53.9488 77.2C55.0048 77.2 55.8208 76.864 56.3968 76.192C56.9728 75.504 57.2608 74.584 57.2608 73.432C57.2608 72.264 56.9728 71.344 56.3968 70.672C55.8208 69.984 55.0048 69.64 53.9488 69.64ZM77.9268 65.008V69.232H73.4148V82H68.0868V69.232H63.6228V65.008H77.9268ZM84.6999 69.232V71.344H89.9799V75.352H84.6999V77.752H90.6999V82H79.3719V65.008H90.6999V69.232H84.6999ZM98.0358 77.968H103.172V82H92.7078V65.008H98.0358V77.968ZM117.976 76.984C117.976 77.96 117.72 78.84 117.208 79.624C116.712 80.408 115.984 81.032 115.024 81.496C114.064 81.944 112.92 82.168 111.592 82.168C109.56 82.168 107.88 81.696 106.552 80.752C105.24 79.792 104.528 78.392 104.416 76.552H110.08C110.16 77.528 110.592 78.016 111.376 78.016C111.648 78.016 111.864 77.944 112.024 77.8C112.2 77.656 112.288 77.448 112.288 77.176C112.288 76.776 112.08 76.464 111.664 76.24C111.264 76 110.608 75.728 109.696 75.424C108.624 75.072 107.728 74.712 107.008 74.344C106.304 73.976 105.688 73.432 105.16 72.712C104.632 71.992 104.368 71.056 104.368 69.904C104.368 68.8 104.648 67.864 105.208 67.096C105.784 66.312 106.56 65.72 107.536 65.32C108.528 64.92 109.64 64.72 110.872 64.72C112.904 64.72 114.52 65.192 115.72 66.136C116.92 67.08 117.576 68.44 117.688 70.216H111.952C111.872 69.32 111.504 68.872 110.848 68.872C110.624 68.872 110.44 68.944 110.296 69.088C110.152 69.216 110.08 69.416 110.08 69.688C110.08 70.056 110.28 70.36 110.68 70.6C111.096 70.824 111.736 71.088 112.6 71.392C113.688 71.776 114.584 72.16 115.288 72.544C116.008 72.912 116.632 73.464 117.16 74.2C117.704 74.92 117.976 75.848 117.976 76.984Z" fill="#F5FAFE"/>
</g>
</svg>
